<svg xmlns="http://www.w3.org/2000/svg" viewBox="0 0 550 400"><path fill="#E93131" d="M116.011 0l-12.032 59.222-22.942-9.939zM127.734 129.408l42.621 32.728-25.493 46.501z"/><path d="M26.735 191.705L0 199l7.05-26.801zm96.389 104.459l25.345 101.978L107 400zm22.795 74.275l-21.662-83.491 47.903-28.917zm31.77-121.447l-61.678 38.311 7.684-59.029zm-64.055 23.174L50.305 220.89l69.459 6.268zm67.567-27.833l-45.212-16.263 32.729-52.092zM156.667 147.999l-28.933-23.674L153.495 99zm22.793 58.083l89.093-67.766-98.198 30.149zM161.265 86.235l-26.79 25.428-56.213-59.7zM10.833 168.863l87.005 51.363-45.383-3.543zm52.79-30.72l68.43 24.257-7.977-35.802zm190.673 17.022l6.425 71.993-39.387-48.923zM311 62.084l-44.359 67.324-18.875-17.307zm-65.862 53.571l20.346 19.773-27.297 7.733z"/><g font-family="Arial" font-size="90" font-weight="400" letter-spacing="5"><text transform="translate(351.49 81.475)">elm</text><text fill="#e93131" transform="translate(358.961 182.021)">red</text><text transform="translate(313.949 282.568)">black</text><text transform="translate(318.958 383.115)">trees</text></g></svg>
